<?xml version="1.0" encoding="utf-8"?>
<!-- Generator: Adobe Illustrator 21.0.0, SVG Export Plug-In . SVG Version: 6.00 Build 0)  -->
<svg version="1.1" id="Layer_1" xmlns="http://www.w3.org/2000/svg" xmlns:xlink="http://www.w3.org/1999/xlink" x="0px" y="0px"
	 viewBox="0 0 173 47.5" style="enable-background:new 0 0 173 47.5;" xml:space="preserve">
<style type="text/css">
	.st0{fill:#FFFFFF;}
</style>
<g>
	<path class="st0" d="M57.7,19.9c0,1.1,0.3,2,0.9,2.7c0.6,0.7,1.4,1,2.2,1c0.9,0,1.6-0.3,2.3-1c0.7-0.7,1-1.6,1-2.6
		c0-1.1-0.3-2-1-2.7c-0.6-0.7-1.4-1.1-2.3-1.1c-0.9,0-1.6,0.4-2.3,1.1C58,17.9,57.7,18.8,57.7,19.9 M61.9,13c1.6,0,3,0.6,4.2,1.9
		c1.2,1.3,1.9,2.9,1.9,4.9c0,2-0.6,3.6-1.9,4.9c-1.2,1.3-2.7,2-4.3,2c-1.7,0-3-0.7-4-2v6.6H54V13.2h3.8v1.5
		C58.9,13.6,60.3,13,61.9,13"/>
	<path class="st0" d="M73.8,19.9c0,1.1,0.3,2,0.9,2.7c0.6,0.7,1.4,1,2.4,1s1.8-0.3,2.4-1c0.6-0.7,0.9-1.6,0.9-2.7
		c0-1.1-0.3-2-0.9-2.7c-0.6-0.7-1.4-1-2.4-1s-1.8,0.3-2.4,1C74.1,17.9,73.8,18.8,73.8,19.9 M84.3,19.9c0,1.9-0.7,3.6-2,4.9
		c-1.4,1.3-3.1,2-5.1,2c-2.1,0-3.8-0.7-5.1-2c-1.4-1.3-2-3-2-4.9c0-1.9,0.7-3.6,2-4.9c1.4-1.3,3.1-2,5.1-2c2.1,0,3.8,0.7,5.1,2
		C83.6,16.3,84.3,18,84.3,19.9"/>
	<path class="st0" d="M97.2,22.4c0,1.3-0.5,2.4-1.5,3.2c-1,0.8-2.2,1.2-3.7,1.2c-1,0-2.1-0.2-3.1-0.5c-1.1-0.4-2.1-0.9-2.9-1.6
		l1.7-2.3c1.4,1.1,2.9,1.6,4.5,1.6c0.5,0,0.9-0.1,1.2-0.3c0.3-0.2,0.4-0.4,0.4-0.8c0-0.3-0.2-0.6-0.6-0.9c-0.4-0.3-1-0.5-1.7-0.7
		c-0.7-0.2-1.3-0.4-1.7-0.6c-0.4-0.2-0.8-0.4-1.3-0.7c-1-0.6-1.5-1.6-1.5-2.8c0-1.2,0.5-2.2,1.5-3c1-0.8,2.3-1.2,3.9-1.2
		c1.6,0,3.2,0.5,4.8,1.6l-1.4,2.5c-1.2-0.8-2.3-1.2-3.5-1.2c-1.2,0-1.8,0.3-1.8,0.9c0,0.3,0.2,0.6,0.6,0.8c0.4,0.2,1,0.4,1.8,0.7
		c0.9,0.3,1.5,0.5,1.8,0.6c0.4,0.1,0.8,0.4,1.3,0.7C96.7,20.2,97.2,21.1,97.2,22.4"/>
	<path class="st0" d="M104.5,15.9v6c0,0.5,0.1,0.9,0.4,1.2c0.3,0.3,0.6,0.4,1,0.4c0.7,0,1.3-0.3,1.8-0.9l1.4,2.6
		c-1.2,1.1-2.4,1.6-3.7,1.6c-1.3,0-2.4-0.4-3.3-1.3c-0.9-0.8-1.3-2-1.3-3.4v-6.2h-1.6v-2.7h1.6v-4h3.8v4h3.3v2.7H104.5z"/>
	<path class="st0" d="M114.8,19.9c0,1.1,0.3,2,0.9,2.7c0.6,0.7,1.4,1,2.2,1c0.9,0,1.6-0.3,2.3-1c0.7-0.7,1-1.6,1-2.6
		c0-1.1-0.3-2-1-2.7c-0.6-0.7-1.4-1.1-2.3-1.1c-0.9,0-1.6,0.4-2.3,1.1C115.1,17.9,114.8,18.8,114.8,19.9 M118.9,13
		c1.6,0,3,0.6,4.2,1.9c1.2,1.3,1.9,2.9,1.9,4.9c0,2-0.6,3.6-1.9,4.9c-1.2,1.3-2.7,2-4.3,2c-1.7,0-3-0.7-4-2v6.6H111V13.2h3.8v1.5
		C116,13.6,117.3,13,118.9,13"/>
	<path class="st0" d="M130.8,19.9c0,1.1,0.3,2,0.9,2.7c0.6,0.7,1.4,1,2.4,1s1.8-0.3,2.4-1c0.6-0.7,0.9-1.6,0.9-2.7
		c0-1.1-0.3-2-0.9-2.7c-0.6-0.7-1.4-1-2.4-1s-1.8,0.3-2.4,1C131.2,17.9,130.8,18.8,130.8,19.9 M141.4,19.9c0,1.9-0.7,3.6-2,4.9
		c-1.4,1.3-3.1,2-5.1,2s-3.8-0.7-5.1-2c-1.4-1.3-2-3-2-4.9c0-1.9,0.7-3.6,2-4.9c1.4-1.3,3.1-2,5.1-2s3.8,0.7,5.1,2
		C140.7,16.3,141.4,18,141.4,19.9"/>
	<path class="st0" d="M147.9,19.1v7.4h-3.8V13.2h3.8v1.5c1.1-1.1,2.4-1.7,3.9-1.7s2.6,0.5,3.6,1.5c1,1,1.4,2.3,1.4,4v8.1h-3.8V19
		c0-2-0.8-3.1-2.3-3.1c-0.8,0-1.4,0.3-2,0.8C148.2,17.3,147.9,18.1,147.9,19.1"/>
	<path class="st0" d="M162.4,31.8c-1.3,0-2.6-0.5-3.8-1.6l1.7-2.8c0.6,0.6,1.3,0.9,2,0.9c0.4,0,0.7-0.2,0.9-0.5
		c0.3-0.3,0.4-0.7,0.4-1.1c0-0.4-1.7-4.9-5.2-13.6h4l3.3,8.3l3.3-8.3h4L166.7,29c-0.4,0.9-0.9,1.6-1.7,2.1
		C164.2,31.6,163.3,31.8,162.4,31.8"/>
	<path class="st0" d="M41.4,20.5C41.4,9.2,32.1,0,20.7,0c0,0-0.1,0-0.1,0c0.3,1.2,0.6,2.8,0,4.5c-0.1,0.6-0.5,1.3-1.2,2.3
		c-7,8.4-7.9,9.7-8.9,11c-0.2,0.3-0.5,0.7-0.8,1.1c-3.6,4.8-2.2,9.2,0.6,11.2c1.2,0.9,2.6,1.4,4.2,1.4c2,0,4.2-0.8,6.2-2.8
		c3.1,1,6.6,0.2,9.3-2.1c3-2.6,4-6.2,2.8-9.4l-0.6-1.6l-3.3,1.2l0.6,1.6c0.8,2.3-0.4,4.4-1.9,5.7c-1.5,1.3-4.2,2.4-6.7,1.1l-1.3-0.7
		l-0.9,1.1c-2.2,2.9-4.9,2.9-6.4,1.8c-1.5-1.1-2-3.5,0.1-6.4c0.4-0.5,0.6-0.9,0.9-1.2c0.9-1.3,1.8-2.5,8.7-10.8
		c1.8-2.2,2.1-3.9,2.1-5.1c7.8,1.6,13.7,8.5,13.7,16.7c0,9.4-7.7,17-17.2,17s-17.2-7.6-17.2-17c0-8.1,5.8-15,13.6-16.6
		c0.6-1.2,0.3-2.4-0.1-3.5C7.3,2.1,0,10.4,0,20.5C0,31.2,8.4,40,19,40.8v3c-2.4-0.2-4.7-0.6-7-1.4l-1.7-0.6l-1.1,3.3l1.7,0.6
		c3.2,1.1,6.5,1.6,9.9,1.6c3.4,0,6.7-0.5,9.9-1.6l1.7-0.6l-1.1-3.3l-1.7,0.6c-2.3,0.8-4.6,1.2-7,1.4v-3C33.1,40,41.4,31.2,41.4,20.5
		"/>
	<path class="st0" d="M21.8,14.2c-0.1,1.1,0.7,2.1,1.9,2.2c1.1,0.1,2.1-0.7,2.2-1.8c0.1-1.1-0.7-2.1-1.9-2.2
		C22.9,12.2,21.9,13.1,21.8,14.2"/>
</g>
</svg>
